<svg viewBox="0 0 20 20" class="bx--parent-item__link--taxonomy-icon"><path d="M12.5,13.125 L12.5,15.625 L6.25,15.625 L6.25,9.375 L8.75,9.375 L8.75,8.125 L5.6730625,8.125 C5.30134035,8.125 5,8.42634035 5,8.7980625 L5,11.875 L1.25,11.875 L1.25,13.125 L5,13.125 L5,16.201875 C5,16.5736073 5.30133024,16.875 5.6730625,16.875 L13.0769375,16.875 C13.4486698,16.875 13.75,16.5736073 13.75,16.201875 L13.75,13.125 L12.5,13.125 Z"></path><rect x="1.25" y="5" width="7.5" height="1.25"></rect><path d="M18.125,11.875 L10.625,11.875 C10.279822,11.875 10,11.595178 10,11.25 L10,3.75 C10,3.40482203 10.279822,3.125 10.625,3.125 L18.125,3.125 C18.470178,3.125 18.75,3.40482203 18.75,3.75 L18.75,11.25 C18.75,11.595178 18.470178,11.875 18.125,11.875 Z M11.25,10.625 L17.5,10.625 L17.5,4.375 L11.25,4.375 L11.25,10.625 Z"></path><rect fill="none" x="0" y="0" width="20" height="20"></rect></svg>